<svg xmlns="http://www.w3.org/2000/svg" width="38" height="40" viewBox="0 0 38 40">
  <defs>
    <style>
      .cls-1 {
        fill: #fff;
        fill-rule: evenodd;
      }
    </style>
  </defs>
  <path id="Forma_1" data-name="Forma 1" class="cls-1" d="M1587.2,1469.77a13.693,13.693,0,0,0-8.56,12.7v3.71a0.959,0.959,0,0,1-.94.94h-1.89a2.84,2.84,0,0,1-2.81-2.85v-4.2a2.819,2.819,0,0,1,1.95-2.7,0.9,0.9,0,0,1,1.14.59,0.923,0.923,0,0,1-.59,1.16,1.013,1.013,0,0,0-.69.95v4.2a1.012,1.012,0,0,0,1,1.01h1.02v-2.81a15.468,15.468,0,0,1,2.71-8.83,15.2,15.2,0,0,1,6.98-5.58,0.893,0.893,0,0,1,1.17.52A0.914,0.914,0,0,1,1587.2,1469.77Zm14.73,0.53a3.45,3.45,0,1,1-3.45-3.5A3.474,3.474,0,0,1,1601.93,1470.3Zm-1.81,0a1.635,1.635,0,1,0-1.64,1.66A1.645,1.645,0,0,0,1600.12,1470.3Zm10.88,9.77v4.2a2.8,2.8,0,0,1-2.76,2.85h-1.67a16.01,16.01,0,0,1-2.6,4.95,15.23,15.23,0,0,1-7.55,5.21,2.964,2.964,0,0,1-2.92,2.72h-2.95a2.965,2.965,0,0,1,0-5.93h2.95a2.9,2.9,0,0,1,2.51,1.42,13.587,13.587,0,0,0,9.43-13.02,13.813,13.813,0,0,0-1.06-5.33l-1.2-.54a7.672,7.672,0,0,1-1.66.97l-0.15,1.46c-0.05.95-1.15,1.55-2.89,1.55s-2.84-.6-2.89-1.56l-0.14-1.45a7.741,7.741,0,0,1-1.67-.97l-1.32.59c-0.84.44-1.89-.23-2.76-1.76a5.51,5.51,0,0,1-.63-1.62,1.49,1.49,0,0,1,.51-1.69l1.17-.86a7.719,7.719,0,0,1-.05-0.96c0-.33.02-0.66,0.05-0.98l-1.17-.86c-0.8-.52-0.75-1.78.12-3.32s1.92-2.19,2.77-1.76l1.33,0.6a7.736,7.736,0,0,1,1.64-.96l0.15-1.47c0.05-.96,1.15-1.55,2.89-1.55s2.84,0.59,2.89,1.55l0.15,1.47a7.564,7.564,0,0,1,1.65.96l1.33-.6a1.456,1.456,0,0,1,1.7.4,5.7,5.7,0,0,1,1.07,1.36c0.87,1.53.91,2.79,0.12,3.32l-1.18.86a7.934,7.934,0,0,1,.06.98,7.733,7.733,0,0,1-.06.96l1.18,0.86c0.79,0.52.75,1.78-.12,3.31a5.773,5.773,0,0,1-1.07,1.37h0a15.606,15.606,0,0,1,1.06,5.68,15.427,15.427,0,0,1-.25,2.8h1.23a0.97,0.97,0,0,0,.95-1.01v-4.2a0.991,0.991,0,0,0-.68-0.95,0.929,0.929,0,0,1-.57-1.16,0.9,0.9,0,0,1,1.14-.59A2.8,2.8,0,0,1,1611,1480.07Zm-16.38,16.95a1.641,1.641,0,0,0-.02-0.23,0.02,0.02,0,0,1-.01-0.02,1.107,1.107,0,0,0-1.09-.86h-2.95a1.125,1.125,0,0,0,0,2.25h2.95A1.135,1.135,0,0,0,1594.62,1497.02Zm10.08-28.86,1.42-1.05a3.683,3.683,0,0,0-.42-1.05,3.947,3.947,0,0,0-.69-0.89l-1.61.73a0.927,0.927,0,0,1-.97-0.15,5.942,5.942,0,0,0-2.04-1.2,0.921,0.921,0,0,1-.62-0.78l-0.18-1.78a3.591,3.591,0,0,0-1.11-.15,3.644,3.644,0,0,0-1.11.15l-0.18,1.78a0.9,0.9,0,0,1-.61.78,5.851,5.851,0,0,0-2.04,1.2,0.93,0.93,0,0,1-.97.15l-1.61-.73a3.44,3.44,0,0,0-.69.89,3.683,3.683,0,0,0-.42,1.05l1.42,1.05a0.923,0.923,0,0,1,.36.93,6.056,6.056,0,0,0-.12,1.21,5.931,5.931,0,0,0,.12,1.19,0.958,0.958,0,0,1-.36.93l-1.42,1.04a3.683,3.683,0,0,0,.42,1.05,3.537,3.537,0,0,0,.69.9l1.6-.73a0.913,0.913,0,0,1,.97.16,5.893,5.893,0,0,0,2.05,1.2,0.907,0.907,0,0,1,.61.78l0.18,1.76a3.644,3.644,0,0,0,1.11.15,3.539,3.539,0,0,0,1.11-.15l0.18-1.76a0.933,0.933,0,0,1,.62-0.78,5.893,5.893,0,0,0,2.05-1.2,0.913,0.913,0,0,1,.97-0.16l1.6,0.73a4.071,4.071,0,0,0,.69-0.9,3.683,3.683,0,0,0,.42-1.05l-1.42-1.04a0.938,0.938,0,0,1-.36-0.93,5.931,5.931,0,0,0,.12-1.19,6.056,6.056,0,0,0-.12-1.21A0.923,0.923,0,0,1,1604.7,1468.16Z" transform="translate(-1573 -1460)"/>
</svg>
