<svg xmlns="http://www.w3.org/2000/svg" width="64" height="53" viewBox="0 0 64 53">
  <defs>
    <style>
      .cls-1 {
        fill: #DE1960;
        fill-rule: evenodd;
      }
    </style>
  </defs>
  <path id="Forma_1_copy_2" data-name="Forma 1 copy 2" class="cls-1" d="M1467.27,2115.33c-0.04-.01-0.08-0.02-0.11-0.03l-7.82-1.17c-1.26-.82-1.38-2.85-1.39-5.05a14.436,14.436,0,0,0,4.01-10.09v-0.32a8.911,8.911,0,0,0,3.01-6.7v-6.01a8.971,8.971,0,0,0-8.96-8.96h-13.02a3.965,3.965,0,0,0-3.85,3.06,6.961,6.961,0,0,0-6.11,6.9v5.01a8.911,8.911,0,0,0,3.01,6.7v0.32a14.472,14.472,0,0,0,4,10.09c0,2.2-.12,4.23-1.38,5.05l-7.82,1.17-0.11.03a7.573,7.573,0,0,0-4.23,3.08,8.527,8.527,0,0,0-1.48,4.77v3.88a3.088,3.088,0,0,0,3.21,2.94h41.54a3.088,3.088,0,0,0,3.21-2.94v-3.88a8.527,8.527,0,0,0-1.48-4.77A7.573,7.573,0,0,0,1467.27,2115.33Zm-18.27-2.37a12.228,12.228,0,0,0,7.11-2.29c0.09,1.72.44,3.62,1.84,4.77-0.76,3.84-4.5,6.67-8.95,6.67s-8.19-2.83-8.95-6.67c1.4-1.15,1.75-3.05,1.84-4.77A12.228,12.228,0,0,0,1449,2112.96Zm-11.08-14.63v-5.35a3.062,3.062,0,0,1,3.06-3.07h17.04a0.94,0.94,0,1,0,0-1.88h-17.04a4.953,4.953,0,0,0-4.94,4.95v2.83a7.048,7.048,0,0,1-1.13-3.84v-5.01a5.077,5.077,0,0,1,5.07-5.07,0.945,0.945,0,0,0,.94-0.94,2.074,2.074,0,0,1,2.07-2.07h13.02a7.08,7.08,0,0,1,7.08,7.08v6.01a7.048,7.048,0,0,1-1.13,3.84v-3.84a0.94,0.94,0,0,0-1.88,0v7.02c0,6.67-4.97,12.09-11.08,12.09s-11.08-5.42-11.08-12.09v-0.66Zm33.19,28.73a1.25,1.25,0,0,1-1.34,1.06h-41.54a1.25,1.25,0,0,1-1.34-1.06v-3.88a6.308,6.308,0,0,1,4.29-6.03l7.09-1.06c1.05,4.57,5.49,7.9,10.73,7.9s9.68-3.33,10.73-7.9l7.09,1.06a6.308,6.308,0,0,1,4.29,6.03v3.88Zm-48.16-7.96h-3.54a0.484,0.484,0,0,1-.53-0.35v-2.51a3.728,3.728,0,0,1,2.51-3.57l5.12-.77a0.127,0.127,0,0,1,.06-0.01,0.037,0.037,0,0,1,.03-0.01c0.03-.01.07-0.02,0.1-0.03a0.037,0.037,0,0,1,.03-0.01,0.594,0.594,0,0,1,.08-0.04l0.01-.01c0.01,0,.01-0.01.02-0.01a0.031,0.031,0,0,1,.02-0.01,3.667,3.667,0,0,0,1.67-2.98,8.2,8.2,0,0,0,7.86.3,0.937,0.937,0,0,0,.43-1.26,0.948,0.948,0,0,0-1.26-.42,6.323,6.323,0,0,1-2.83.66c-3.77,0-6.84-3.36-6.84-7.49v-4.01a1.654,1.654,0,0,1,1.66-1.65h2.41a0.94,0.94,0,1,0,0-1.88h-2.41a3.538,3.538,0,0,0-3.54,3.53v0.5a4.461,4.461,0,0,1-.12-1.03v-3.24a2.949,2.949,0,0,1,2.95-2.95,0.939,0.939,0,0,0,.94-0.94,1,1,0,0,1,1-1.01h1.18a0.94,0.94,0,0,0,0-1.88h-1.18a2.9,2.9,0,0,0-2.75,2.01,4.846,4.846,0,0,0-4.02,4.77v3.24a6.117,6.117,0,0,0,2,4.53v0.01a9.713,9.713,0,0,0,2.71,6.78c-0.01,1.2-.1,2.27-0.69,2.71l-4.98.75a0.425,0.425,0,0,0-.11.02,5.644,5.644,0,0,0-3.94,5.4v2.51a2.327,2.327,0,0,0,2.41,2.23h3.54A0.94,0.94,0,0,0,1422.95,2119.1Zm54.11-8.26a0.425,0.425,0,0,0-.11-0.02l-4.98-.75c-0.59-.44-0.68-1.51-0.69-2.71a9.713,9.713,0,0,0,2.71-6.78v-0.01a6.117,6.117,0,0,0,2-4.53v-5.07a4.955,4.955,0,0,0-4.95-4.95h-3a0.94,0.94,0,0,0,0,1.88h3a3.077,3.077,0,0,1,3.07,3.07v5.07a4.461,4.461,0,0,1-.12,1.03v-0.5a3.538,3.538,0,0,0-3.54-3.53h-2.41a0.94,0.94,0,1,0,0,1.88h2.41a1.654,1.654,0,0,1,1.66,1.65v4.01c0,4.13-3.07,7.49-6.84,7.49a6.323,6.323,0,0,1-2.83-.66,0.948,0.948,0,0,0-1.26.42,0.937,0.937,0,0,0,.43,1.26,8.2,8.2,0,0,0,7.86-.3,3.667,3.667,0,0,0,1.67,2.98,0.031,0.031,0,0,1,.02.01c0.01,0,.01.01,0.02,0.01l0.01,0.01a0.594,0.594,0,0,1,.08.04,0.037,0.037,0,0,1,.03.01c0.03,0.01.07,0.02,0.1,0.03a0.037,0.037,0,0,1,.03.01,0.127,0.127,0,0,1,.06.01l5.12,0.77a3.728,3.728,0,0,1,2.51,3.57v2.51a0.484,0.484,0,0,1-.53.35h-3.54a0.94,0.94,0,0,0,0,1.88h3.54a2.327,2.327,0,0,0,2.41-2.23v-2.51A5.644,5.644,0,0,0,1477.06,2110.84Z" transform="translate(-1417 -2077)"/>
</svg>
