<svg xmlns="http://www.w3.org/2000/svg" width="64" height="64" viewBox="0 0 64 64">
  <defs>
    <style>
      .cls-1 {
        fill: #f8395d;
        fill-rule: evenodd;
      }
    </style>
  </defs>
  <path class="cls-1" d="M1099.8,2219h-57.6a3.147,3.147,0,0,0-3.2,3.2v49.07a1,1,0,0,0,1.07,1.06h21.33v8.53h-5.33V2283h34.13a2.013,2.013,0,0,0,2.13-2.14v-8.53h9.6a1,1,0,0,0,1.07-1.06V2222.2A3.147,3.147,0,0,0,1099.8,2219Zm-58.67,3.2a1.013,1.013,0,0,1,1.07-1.07h57.6a1.013,1.013,0,0,1,1.07,1.07v38.4h-3.2v-35.2a1.013,1.013,0,0,0-1.07-1.07h-51.2a1.013,1.013,0,0,0-1.07,1.07v35.2h-3.2v-38.4Zm49.07,33.06h-17.07v-6.4h17.07v6.4Zm-17.07,2.14h17.07v17.07h-17.07V2257.4Zm17.07-10.67h-17.07a2.01,2.01,0,0,0-2.13,2.13v11.74h-24.53v-34.13h49.06v34.13h-3.2v-11.74A2.01,2.01,0,0,0,1090.2,2246.73Zm-49.07,16H1071v7.47h-29.87v-7.47Zm22.4,18.13v-8.53H1071v8.53h-7.47Zm9.6,0v-4.26h17.07v4.26h-17.07Zm19.2-10.66v-7.47h8.54v7.47h-8.54Zm-12.8-19.2h4.27v2.13h-4.27V2251Zm0,26.67h4.27v2.13h-4.27v-2.13Z" transform="translate(-1039 -2219)"/>
</svg>
