<svg xmlns="http://www.w3.org/2000/svg" width="38" height="38" viewBox="0 0 38 38">
  <defs>
    <style>
      .cls-1 {
        fill: #fff;
        fill-rule: evenodd;
      }
    </style>
  </defs>
  <path id="Forma_1" data-name="Forma 1" class="cls-1" d="M828.833,1462.61a1.6,1.6,0,0,0-1.583-1.61H814.583a1.6,1.6,0,0,0-1.583,1.61v12.84a1.6,1.6,0,0,0,1.583,1.61H827.25a1.6,1.6,0,0,0,1.583-1.61v-12.84Zm-12.666,1.6h9.5v9.63h-9.5v-9.63Zm34.833-1.6a1.6,1.6,0,0,0-1.583-1.61H836.75a1.6,1.6,0,0,0-1.583,1.61v12.84a1.6,1.6,0,0,0,1.583,1.61h12.667a1.605,1.605,0,0,0,1.583-1.61v-12.84Zm-12.667,1.6h9.5v9.63h-9.5v-9.63Zm-9.5,20.34a1.6,1.6,0,0,0-1.583-1.61H814.583a1.6,1.6,0,0,0-1.583,1.61v12.84a1.6,1.6,0,0,0,1.583,1.61H827.25a1.6,1.6,0,0,0,1.583-1.61v-12.84Zm-12.666,1.6h9.5v9.64h-9.5v-9.64Zm34.833-1.6a1.605,1.605,0,0,0-1.583-1.61H836.75a1.6,1.6,0,0,0-1.583,1.61v12.84a1.6,1.6,0,0,0,1.583,1.61h12.667a1.6,1.6,0,0,0,1.583-1.61v-12.84Zm-12.667,1.6h9.5v9.64h-9.5v-9.64Z" transform="translate(-813 -1461)"/>
</svg>
