<svg xmlns="http://www.w3.org/2000/svg" width="64" height="63" viewBox="0 0 64 63">
  <defs>
    <style>
      .cls-1 {
        fill: #f8395d;
        fill-rule: evenodd;
      }
    </style>
  </defs>
  <path id="Forma_1_copy_2" data-name="Forma 1 copy 2" class="cls-1" d="M1054.69,2085.01c-0.64.37-1.27,0.76-1.88,1.18a1.069,1.069,0,0,0,.6,1.95,1.082,1.082,0,0,0,.6-0.18c0.57-.39,1.15-0.76,1.74-1.09A1.07,1.07,0,0,0,1054.69,2085.01Zm28.4,1.09a1.058,1.058,0,0,0,.32,1.47c0.57,0.37,1.14.77,1.68,1.18a1.035,1.035,0,0,0,.64.22,1.069,1.069,0,0,0,.65-1.92c-0.59-.45-1.2-0.87-1.82-1.27A1.058,1.058,0,0,0,1083.09,2086.1Zm14.63,21.72a1.073,1.073,0,0,0-1.15-.98,1.051,1.051,0,0,0-.98,1.14c0.02,0.33.02,0.66,0.04,0.98h-3.16v8.55H1101v-8.55h-3.24C1097.74,2108.58,1097.74,2108.2,1097.72,2107.82Zm1.15,7.55h-4.27v-4.27h4.27v4.27Zm-56.84-15.46c-0.26.68-.5,1.39-0.7,2.1a1.063,1.063,0,0,0,.73,1.32,1.04,1.04,0,0,0,.29.05,1.077,1.077,0,0,0,1.03-.78c0.19-.65.4-1.31,0.64-1.94A1.063,1.063,0,1,0,1042.03,2099.91Zm53.08,0.7a1.066,1.066,0,0,0-.69,1.34c0.21,0.64.39,1.31,0.54,1.98a1.076,1.076,0,0,0,1.04.82,1.134,1.134,0,0,0,.25-0.03,1.055,1.055,0,0,0,.79-1.28c-0.16-.72-0.36-1.44-0.59-2.14A1.066,1.066,0,0,0,1095.11,2100.61Zm-5.42-10.63a1.068,1.068,0,1,0-1.53,1.49c0.47,0.49.93,1,1.37,1.53a1.063,1.063,0,0,0,.82.38,1.064,1.064,0,0,0,.82-1.75C1090.7,2091.07,1090.2,2090.51,1089.69,2089.98Zm-38.88.54a1.072,1.072,0,0,0-1.46-1.57c-0.53.51-1.06,1.04-1.56,1.58a1.073,1.073,0,0,0,.07,1.51,1.085,1.085,0,0,0,.72.28,1.071,1.071,0,0,0,.79-0.35C1049.83,2091.47,1050.31,2090.98,1050.81,2090.52Zm43.03,8.22a1.116,1.116,0,0,0,.47-0.11,1.079,1.079,0,0,0,.48-1.44c-0.33-.66-0.69-1.31-1.06-1.94a1.068,1.068,0,1,0-1.83,1.1c0.34,0.58.68,1.18,0.98,1.8A1.086,1.086,0,0,0,1093.84,2098.74Zm-51.47,9.93c0.03-.69.09-1.38,0.18-2.05a1.069,1.069,0,0,0-2.12-.27c-0.09.73-.16,1.47-0.19,2.21a0.887,0.887,0,0,0,.06.4H1037v8.55h8.53v-8.55h-3.24A0.961,0.961,0,0,0,1042.37,2108.67Zm1.03,6.7h-4.27v-4.27h4.27v4.27Zm1.66-21.36c-0.41.61-.8,1.24-1.16,1.88a1.074,1.074,0,0,0,.4,1.46,1.127,1.127,0,0,0,.52.14,1.052,1.052,0,0,0,.93-0.55c0.34-.59.7-1.18,1.08-1.74A1.066,1.066,0,1,0,1045.06,2094.01Zm-3.79-7.47a4.267,4.267,0,0,0,4.11-3.2h12.95a1.074,1.074,0,0,0,.74,1.84,1.217,1.217,0,0,0,.38-0.07q0.96-.375,1.95-0.66a1.052,1.052,0,0,0,.73-1.11h2.47c0.05,0.03.08,0.09,0.13,0.12v3.08h8.54v-2.85c0.22,0.04.45,0.07,0.68,0.11a0.615,0.615,0,0,0,.19.02,1.064,1.064,0,0,0,.89-0.48h2.32c-0.03.05-.07,0.1-0.1,0.16a1.086,1.086,0,0,0,.65,1.37c0.65,0.23,1.29.48,1.91,0.76a1.07,1.07,0,0,0,.43.09,1.053,1.053,0,0,0,.97-0.64,1.066,1.066,0,0,0-.54-1.41c-0.27-.12-0.56-0.22-0.85-0.33h12.8a4.27,4.27,0,1,0,0-2.14h-19.35V2078h-8.54v3.2h-19.35A4.26,4.26,0,1,0,1041.27,2086.54Zm55.46-6.41a2.14,2.14,0,1,1-2.13,2.14A2.142,2.142,0,0,1,1096.73,2080.13Zm-29.86,0h4.26v4.28h-4.26v-4.28Zm-25.6,0a2.14,2.14,0,1,1-2.14,2.14A2.14,2.14,0,0,1,1041.27,2080.13Zm28.8,8.55a1.07,1.07,0,0,0-2.14,0v0.75l-19.04,29.14h5.44a6.156,6.156,0,0,1,6.14,6.15v10.94h2.13V2141h12.8v-5.34h2.13v-10.94a6.156,6.156,0,0,1,6.14-6.15h5.43l-19.03-29.14v-0.75ZM1069,2114.3a2.135,2.135,0,1,1-2.13,2.14A2.134,2.134,0,0,1,1069,2114.3Zm4.27,24.56h-8.54v-3.2h8.54v3.2Zm2.13-5.34h-12.8v-3.2h12.8v3.2Zm8.27-17.08a8.282,8.282,0,0,0-8.27,8.28v3.47h-12.8v-3.47a8.282,8.282,0,0,0-8.27-8.28h-1.49l15.09-23.11v18.99a4.27,4.27,0,1,0,2.14,0v-18.99l15.09,23.11h-1.49Z" transform="translate(-1037 -2078)"/>
</svg>
