<svg xmlns="http://www.w3.org/2000/svg" width="38" height="38" viewBox="0 0 38 38">
  <defs>
    <style>
      .cls-1 {
        fill: #fff;
        fill-rule: evenodd;
      }
    </style>
  </defs>
  <path id="Forma_1" data-name="Forma 1" class="cls-1" d="M1203.19,1499h0a11.277,11.277,0,0,1-9.49-4.99c-2.6-4.04-2.13-9.5.95-13.77a13.189,13.189,0,0,1,8.54-5.7,7.882,7.882,0,0,0,5.92-5.23,9.248,9.248,0,0,1,3.08-4.75,11.145,11.145,0,0,1,8.3-3.56,9.113,9.113,0,0,1,6.87,2.85,10.592,10.592,0,0,1-.23,14.25,11.5,11.5,0,0,1-4.75,3.32,10.982,10.982,0,0,0-6.16,7.13,14.562,14.562,0,0,1-3.55,6.17A12.984,12.984,0,0,1,1203.19,1499Zm17.3-35.63a9.841,9.841,0,0,0-9.01,6.65,10.912,10.912,0,0,1-7.82,6.89,11,11,0,0,0-7.11,4.75c-2.61,3.56-2.85,7.84-.71,11.17a8.467,8.467,0,0,0,7.35,3.79h0a11.142,11.142,0,0,0,7.82-3.32,11.931,11.931,0,0,0,3.08-5.22,12.022,12.022,0,0,1,7.58-8.56,8.926,8.926,0,0,0,3.8-2.85c2.84-3.32,3.08-8.31.23-11.16A7.366,7.366,0,0,0,1220.49,1463.37Z" transform="translate(-1192 -1461)"/>
</svg>
