<svg xmlns="http://www.w3.org/2000/svg" width="64" height="67" viewBox="0 0 64 67">
  <defs>
    <style>
      .cls-1 {
        fill: #f8395d;
        fill-rule: evenodd;
      }
    </style>
  </defs>
  <path id="Forma_1_copy_3" data-name="Forma 1 copy 3" class="cls-1" d="M1441.91,2233.37a22.911,22.911,0,0,0-14.4,21.27v6.22a1.61,1.61,0,0,1-1.6,1.56h-3.18a4.77,4.77,0,0,1-4.73-4.78v-7.02a4.743,4.743,0,0,1,3.28-4.53,1.539,1.539,0,0,1,.94,2.93,1.7,1.7,0,0,0-1.16,1.6v7.02a1.692,1.692,0,0,0,1.67,1.7h1.72v-4.7a25.869,25.869,0,0,1,16.32-24.15A1.549,1.549,0,0,1,1441.91,2233.37Zm24.82,0.88a5.81,5.81,0,1,1-5.81-5.87A5.845,5.845,0,0,1,1466.73,2234.25Zm-3.05,0a2.76,2.76,0,1,0-2.76,2.78A2.778,2.778,0,0,0,1463.68,2234.25Zm18.32,16.37v7.02a4.7,4.7,0,0,1-4.64,4.78h-2.83a26.449,26.449,0,0,1-4.37,8.31,25.905,25.905,0,0,1-12.71,8.72,4.99,4.99,0,0,1-4.92,4.55h-4.98a4.965,4.965,0,0,1,0-9.93h4.98a4.913,4.913,0,0,1,4.23,2.37,22.946,22.946,0,0,0,14.08-30.74l-2.01-.9a12.645,12.645,0,0,1-2.8,1.63l-0.25,2.44c-0.08,1.6-1.93,2.59-4.86,2.59s-4.79-.99-4.87-2.6l-0.24-2.43a12.645,12.645,0,0,1-2.8-1.63l-2.23,1c-1.41.73-3.19-.39-4.65-2.95a9.338,9.338,0,0,1-1.07-2.71c-0.33-1.73.36-2.51,0.86-2.84l1.98-1.45a14.347,14.347,0,0,1-.1-1.61,14.855,14.855,0,0,1,.1-1.63l-1.97-1.44c-1.35-.87-1.27-2.99.2-5.56s3.24-3.68,4.65-2.95l2.25,1.01a13,13,0,0,1,2.77-1.61l0.25-2.46c0.08-1.61,1.93-2.6,4.87-2.6s4.78,0.99,4.86,2.6l0.26,2.46a13.252,13.252,0,0,1,2.77,1.61l2.24-1.01c0.54-.27,1.55-0.48,2.87.67a9.145,9.145,0,0,1,1.79,2.28c1.47,2.57,1.54,4.68.21,5.55l-1.98,1.45a14.855,14.855,0,0,1,.1,1.63,14.347,14.347,0,0,1-.1,1.61l1.98,1.45c1.33,0.88,1.26,2.99-.21,5.55a9.209,9.209,0,0,1-1.79,2.29h-0.01a25.827,25.827,0,0,1,1.79,9.51,27.167,27.167,0,0,1-.41,4.69h2.07a1.625,1.625,0,0,0,1.58-1.7v-7.02a1.674,1.674,0,0,0-1.13-1.6,1.54,1.54,0,0,1-.96-1.94,1.512,1.512,0,0,1,1.91-.99A4.708,4.708,0,0,1,1482,2250.62Zm-27.59,28.39a1.665,1.665,0,0,0-.04-0.39,0.049,0.049,0,0,0-.01-0.03,1.859,1.859,0,0,0-1.83-1.44h-4.98a1.885,1.885,0,0,0,0,3.77h4.98A1.9,1.9,0,0,0,1454.41,2279.01Zm16.97-48.34,2.4-1.75a7.02,7.02,0,0,0-1.87-3.27l-2.71,1.23a1.558,1.558,0,0,1-1.64-.25,9.912,9.912,0,0,0-3.43-2.01,1.55,1.55,0,0,1-1.04-1.3l-0.3-2.98a6.855,6.855,0,0,0-3.74,0l-0.31,2.98a1.524,1.524,0,0,1-1.03,1.3,10.047,10.047,0,0,0-3.44,2.01,1.541,1.541,0,0,1-1.63.25l-2.71-1.23a7.02,7.02,0,0,0-1.87,3.27l2.4,1.75a1.546,1.546,0,0,1,.6,1.55,10.482,10.482,0,0,0-.2,2.02,10.372,10.372,0,0,0,.19,2.01,1.535,1.535,0,0,1-.6,1.55l-2.39,1.74a6.892,6.892,0,0,0,1.87,3.27l2.69-1.21a1.518,1.518,0,0,1,1.64.25,9.867,9.867,0,0,0,3.45,2.02,1.535,1.535,0,0,1,1.04,1.3l0.3,2.95a6.855,6.855,0,0,0,3.74,0l0.3-2.95a1.54,1.54,0,0,1,1.03-1.3,9.82,9.82,0,0,0,3.46-2.02,1.518,1.518,0,0,1,1.64-.25l2.69,1.21a6.892,6.892,0,0,0,1.87-3.27l-2.39-1.74a1.544,1.544,0,0,1-.6-1.56,11.023,11.023,0,0,0,.19-2,10.561,10.561,0,0,0-.2-2.02A1.546,1.546,0,0,1,1471.38,2230.67Z" transform="translate(-1418 -2217)"/>
</svg>
