<svg xmlns="http://www.w3.org/2000/svg" width="64" height="64" viewBox="0 0 64 64">
  <defs>
    <style>
      .cls-1 {
        fill: #f8395d;
        fill-rule: evenodd;
      }
    </style>
  </defs>
  <path id="B" class="cls-1" d="M1421,2357h58a3,3,0,0,1,3,3v58a3,3,0,0,1-3,3h-58a3,3,0,0,1-3-3v-58A3,3,0,0,1,1421,2357Zm5,4h48a4,4,0,0,1,4,4v48a4,4,0,0,1-4,4h-48a4,4,0,0,1-4-4v-48A4,4,0,0,1,1426,2361Zm34.68,20.47-4.3,5.58a4.291,4.291,0,0,0-.39.55,0.713,0.713,0,0,0-.11.35v1.56a0.331,0.331,0,0,0,.1.24,0.41,0.41,0,0,0,.28.09h4.27q0.21,0,.21.15l-0.02,1.86a0.377,0.377,0,0,0,.09.28,0.453,0.453,0,0,0,.32.09h2.56a0.61,0.61,0,0,0,.37-0.09,0.425,0.425,0,0,0,.12-0.34v-1.76a0.162,0.162,0,0,1,.18-0.19h1.07a0.306,0.306,0,0,0,.36-0.33v-1.65a0.277,0.277,0,0,0-.33-0.29h-1.11a0.156,0.156,0,0,1-.17-0.18v-5.98a0.317,0.317,0,0,0-.07-0.23,0.258,0.258,0,0,0-.21-0.09h-2.46a1.084,1.084,0,0,0-.43.07,1.266,1.266,0,0,0-.33.31h0Zm-2.05,6.1c-0.11,0-.17-0.02-0.17-0.07a0.309,0.309,0,0,1,.06-0.12l2.05-2.87a0.356,0.356,0,0,1,.17-0.16,0.245,0.245,0,0,1,.04.22v2.9a0.091,0.091,0,0,1-.03.07,0.169,0.169,0,0,1-.1.03h-2.02Zm-12.82,15.42q4.875,0,7.53-1.99a6.891,6.891,0,0,0,2.66-5.87,6.489,6.489,0,0,0-1.26-3.95,5.961,5.961,0,0,0-3.79-2.22,6.283,6.283,0,0,0,3-2.22,5.741,5.741,0,0,0,1.03-3.34,6.244,6.244,0,0,0-2.78-5.55q-2.775-1.845-7.72-1.85h-9.47v26.99h10.8Zm0.42-11.94a3.629,3.629,0,0,1,4.16,4.07,3.347,3.347,0,0,1-1.17,2.77,5.391,5.391,0,0,1-3.41.93h-5.18v-7.77h5.6Zm-5.6-10.88h3.85a6.2,6.2,0,0,1,3.65.89,3.164,3.164,0,0,1,1.22,2.76,3.026,3.026,0,0,1-1.21,2.6,5.811,5.811,0,0,1-3.47.89h-4.04v-7.14Z" transform="translate(-1418 -2357)"/>
</svg>
