<svg xmlns="http://www.w3.org/2000/svg" width="64" height="64" viewBox="0 0 64 64">
  <defs>
    <style>
      .cls-1 {
        fill: #f8395d;
        fill-rule: evenodd;
      }
    </style>
  </defs>
  <path class="cls-1" d="M1067.01,2376.96l-6.2,6.2q-3.435,3.435-6.86,6.89a4.244,4.244,0,0,0-1.09,2q-1.23,5.67-2.42,11.34l-0.44,2.09a2.98,2.98,0,0,0,.76,2.73,2.929,2.929,0,0,0,2.06.84,3.7,3.7,0,0,0,.66-0.07l2.3-.48c3.66-.77,7.32-1.56,10.98-2.32a4.236,4.236,0,0,0,2.18-1.17q15.39-15.435,30.78-30.82a4.341,4.341,0,0,0,1.27-2.78,1.87,1.87,0,0,0-.03-0.53c-0.07-.26-0.12-0.54-0.19-0.8a11.625,11.625,0,0,0-.61-2.16h0a17.044,17.044,0,0,0-9.46-9.29,10.406,10.406,0,0,0-2.61-.57l-0.23-.03a3.69,3.69,0,0,0-3.17,1.19Q1075.885,2368.085,1067.01,2376.96Zm20.42-15.78h0.07l0.22,0.03a6.441,6.441,0,0,1,1.8.36,13.959,13.959,0,0,1,7.74,7.61,8.58,8.58,0,0,1,.42,1.51c0.04,0.22.09,0.42,0.13,0.63a0.931,0.931,0,0,1-.33.56q-15.4,15.4-30.79,30.83a1.059,1.059,0,0,1-.56.3c-3.67.77-7.32,1.54-10.99,2.31l-1.93.41,0.37-1.72c0.79-3.76,1.59-7.54,2.4-11.3a1.02,1.02,0,0,1,.25-0.43q3.4-3.45,6.82-6.87l6.2-6.21q8.865-8.88,17.73-17.77A0.732,0.732,0,0,1,1087.43,2361.18Zm-45.35,11.07h22.79a1.61,1.61,0,0,0,0-3.22h-22.79a5.089,5.089,0,0,0-5.08,5.09v42.79a5.089,5.089,0,0,0,5.08,5.09h42.72a5.087,5.087,0,0,0,5.07-5.09v-21.89a1.605,1.605,0,1,0-3.21,0v21.89a1.893,1.893,0,0,1-1.88,1.89h-42.7a1.893,1.893,0,0,1-1.88-1.89v-42.78A1.891,1.891,0,0,1,1042.08,2372.25Z" transform="translate(-1037 -2358)"/>
</svg>
